<svg height="131.6" width="490.8" xmlns="http://www.w3.org/2000/svg" style=""><rect id="backgroundrect" width="100%" height="100%" x="0" y="0" fill="none" stroke="none"/><g class="currentLayer" style=""><title>Layer 1</title><path d="M181.59217643737793,98.59326362609863 h10.982666015625 l-1.8631309270858765,-8.430160522460938 v-50.096473693847656 h-10.492368698120117 v22.868022918701172 c-3.1379048824310303,-3.5852408409118652 -7.5505828857421875,-5.717005729675293 -12.649678230285645,-5.717005729675293 c-10.492368698120117,0 -18.631309509277344,8.623957633972168 -18.631309509277344,21.123849868774414 c0,12.596792221069336 8.138940811157227,21.123849868774414 18.631309509277344,21.123849868774414 c5.197154998779297,0 9.707892417907715,-2.228663206100464 12.845797538757324,-6.007700443267822 zm207.49395751953125,-30.13540267944336 c2.1573095321655273,0 4.118499755859375,0.5813904404640198 5.883571624755859,1.8410695791244507 l5.001035690307617,-11.046417236328125 c-2.353428602218628,-1.4534759521484375 -5.001035690307617,-2.0348663330078125 -7.6486430168151855,-2.0348663330078125 c-4.706857204437256,0 -8.727296829223633,2.1317648887634277 -11.17878532409668,6.104599475860596 l-1.0786547660827637,-5.135615348815918 h-10.786547660827637 l1.7650713920593262,7.945668697357178 V98.69016456604004 h10.492368698120117 v-25.87187385559082 c1.372833251953125,-2.7131552696228027 4.020440578460693,-4.3604278564453125 7.5505828857421875,-4.3604278564453125 zm30.692630767822266,20.15486717224121 c-6.079690456390381,0 -10.590428352355957,-3.972834348678589 -10.590428352355957,-10.174331665039062 c0,-6.298396110534668 4.510737895965576,-10.174331665039062 10.590428352355957,-10.174331665039062 c6.177750110626221,0 10.590428352355957,3.8759360313415527 10.590428352355957,10.174331665039062 c0,6.104599475860596 -4.4126787185668945,10.174331665039062 -10.590428352355957,10.174331665039062 zM159.13654899597168,78.34150123596191 c0,-6.298396110534668 4.510737895965576,-10.174331665039062 10.590428352355957,-10.174331665039062 c6.177750110626221,0 10.590428352355957,3.8759360313415527 10.590428352355957,10.174331665039062 c0,6.201497554779053 -4.4126787185668945,10.174331665039062 -10.590428352355957,10.174331665039062 c-6.079690456390381,0.0968983992934227 -10.590428352355957,-3.972834348678589 -10.590428352355957,-10.174331665039062 zm307.220458984375,10.271230697631836 c-6.079690456390381,0 -10.590428352355957,-3.972834348678589 -10.590428352355957,-10.174331665039062 c0,-6.298396110534668 4.510737895965576,-10.174331665039062 10.590428352355957,-10.174331665039062 c6.177750110626221,0 10.590428352355957,3.8759360313415527 10.590428352355957,10.174331665039062 c-0.0980595275759697,6.104599475860596 -4.510737895965576,10.174331665039062 -10.590428352355957,10.174331665039062 zm-248.28671264648438,-21.026954650878906 c5.393273830413818,0 8.923417091369629,2.5193583965301514 10.100131034851074,7.1704816818237305 h-20.20026206970215 c1.0786547660827637,-4.748021602630615 4.706857204437256,-7.1704816818237305 10.100131034851074,-7.1704816818237305 zm125.41812896728516,0 c5.393273830413818,0 8.923417091369629,2.5193583965301514 10.100131034851074,7.1704816818237305 h-20.20026206970215 c1.2747737169265747,-4.748021602630615 4.804916858673096,-7.1704816818237305 10.100131034851074,-7.1704816818237305 zm-51.18707275390625,31.007488250732422 h16.866239547729492 l10.982666015625,-40.60042953491211 h-11.4729642868042 l-7.942821979522705,32.945457458496094 l-8.040881156921387,-32.84856033325195 h-11.27684497833252 zm-26.96636962890625,0 h10.492368698120117 V57.99283790588379 h-10.492368698120117 zm-45.695735931396484,0.7751871943473816 c5.883571624755859,0 11.571023941040039,-1.6472728252410889 16.375940322875977,-4.651123523712158 l-4.020440578460693,-8.914652824401855 c-3.726261854171753,2.0348663330078125 -8.040881156921387,3.1007487773895264 -12.257440567016602,3.1007487773895264 c-5.4913330078125,0 -9.315654754638672,-2.1317648887634277 -11.080726623535156,-6.104599475860596 h29.613977432250977 c0.2941785752773285,-1.5503743886947632 0.4902976155281067,-2.906951904296875 0.4902976155281067,-4.748021602630615 c0,-12.596792221069336 -8.825357437133789,-20.930055618286133 -20.49444007873535,-20.930055618286133 c-11.865202903747559,0 -20.49444007873535,8.527059555053711 -20.49444007873535,21.123849868774414 c-0.0980595275759697,12.887487411499023 8.53117847442627,21.123849868774414 21.867273330688477,21.123849868774414 zM487.04760551452637,78.34150123596191 c0,-12.596792221069336 -8.825357437133789,-21.123849868774414 -20.69055938720703,-21.123849868774414 c-11.963261604309082,0 -20.69055938720703,8.623957633972168 -20.69055938720703,21.123849868774414 s8.825357437133789,21.123849868774414 20.69055938720703,21.123849868774414 S487.04760551452637,90.93829536437988 487.04760551452637,78.34150123596191 zm-142.08824157714844,21.123849868774414 c5.883571624755859,0 11.571023941040039,-1.5503743886947632 16.375940322875977,-4.651123523712158 l-4.020440578460693,-8.914652824401855 c-3.726261854171753,2.0348663330078125 -8.040881156921387,3.1007487773895264 -12.257440567016602,3.1007487773895264 c-5.4913330078125,0 -9.315654754638672,-2.1317648887634277 -11.080726623535156,-6.104599475860596 h29.613977432250977 c0.2941785752773285,-1.5503743886947632 0.4902976155281067,-2.906951904296875 0.4902976155281067,-4.748021602630615 c0,-12.596792221069336 -8.825357437133789,-20.930055618286133 -20.49444007873535,-20.930055618286133 c-11.865202903747559,0 -20.49444007873535,8.527059555053711 -20.49444007873535,21.123849868774414 c0,12.98438549041748 8.53117847442627,21.123849868774414 21.867273330688477,21.123849868774414 zm74.81941986083984,0 c11.963261604309082,0 20.69055938720703,-8.623957633972168 20.69055938720703,-21.123849868774414 s-8.825357437133789,-21.123849868774414 -20.69055938720703,-21.123849868774414 c-11.963261604309082,0 -20.69055938720703,8.623957633972168 -20.69055938720703,21.123849868774414 s8.727296829223633,21.123849868774414 20.69055938720703,21.123849868774414 zm-174.34983825683594,-0.8720855712890625 h10.492368698120117 v-58.526634216308594 h-10.492368698120117 zm25.201297760009766,-46.12363815307617 c3.628202438354492,0 6.569987773895264,-2.906951904296875 6.569987773895264,-6.5890913009643555 s-2.84372615814209,-6.5890913009643555 -6.569987773895264,-6.5890913009643555 s-6.668047904968262,2.906951904296875 -6.668047904968262,6.5890913009643555 s2.84372615814209,6.5890913009643555 6.668047904968262,6.5890913009643555 zM90.29877281188965,3.148337960243225 l-5.981630802154541,56.201072692871094 l-10.198189735412598,-47.38331985473633 l-32.16352462768555,6.685989856719971 l10.100131034851074,47.38331985473633 l-46.284095764160156,9.689840316772461 l8.23699951171875,37.790374755859375 L95.49591636657715,130.66663551330566 l18.631309509277344,-41.181819915771484 l8.825357437133789,-82.94503021240234 zm-25.789653778076172,81.58844757080078 c-1.6670119762420654,1.5503743886947632 -3.8243215084075928,1.3565776348114014 -6.2758097648620605,0.5813904404640198 c-2.353428602218628,-0.7751871943473816 -3.334023952484131,-3.48834228515625 -2.5495474338531494,-6.9766845703125 c0.6864166259765625,-2.5193583965301514 3.726261854171753,-2.906951904296875 5.393273830413818,-2.906951904296875 c0.588357150554657,0 1.176714301109314,0.0968983992934227 1.7650713920593262,0.3875935971736908 c1.0786547660827637,0.4844920039176941 2.9417858123779297,1.5503743886947632 3.334023952484131,3.1007487773895264 c0.588357150554657,2.325561761856079 0,4.2635297775268555 -1.6670119762420654,5.81390380859375 zm23.63234519958496,2.5193583965301514 c-1.2747737169265747,2.1317648887634277 -4.4126787185668945,2.4224600791931152 -7.6486430168151855,0.8720855712890625 c-2.1573095321655273,-1.0658824443817139 -2.1573095321655273,-3.5852408409118652 -1.8631309270858765,-5.232513904571533 c0.0980595275759697,-0.8720855712890625 0.4902976155281067,-1.744171142578125 1.0786547660827637,-2.4224600791931152 c0.7844762206077576,-0.9689840078353882 2.0592498779296875,-2.228663206100464 3.4320833683013916,-2.228663206100464 c2.4514880180358887,-0.0968983992934227 4.4126787185668945,0.9689840078353882 5.58939266204834,2.906951904296875 s0.588357150554657,4.069732666015625 -0.588357150554657,6.104599475860596 z" fill="#ffffff" id="svg_1" class="selected" fill-opacity="1"/></g></svg>